<svg xmlns="http://www.w3.org/2000/svg" xmlns:xlink="http://www.w3.org/1999/xlink" id="Layer_1" x="0px" y="0px" viewBox="0 0 280.2 235.5" style="enable-background:new 0 0 280.2 235.5;" xml:space="preserve"><style type="text/css">	.st0{fill:url(#SVGID_1_);}</style><linearGradient id="SVGID_1_" gradientUnits="userSpaceOnUse" x1="0" y1="117.7717" x2="280.1786" y2="117.7717">	<stop offset="0" style="stop-color:#991C24"></stop>	<stop offset="0.7251" style="stop-color:#BE2126"></stop>	<stop offset="1" style="stop-color:#C63F36"></stop></linearGradient><path class="st0" d="M279.6,96.8c-0.7-1.8-2.1-3.1-3.9-3.9c-1.8-0.7-3.7-0.7-5.5,0c-1.8,0.7-3.1,2.1-3.9,3.9  c-0.5,1.3-0.7,2.8-0.4,4.2l0,0.1l-11.6,6.2l1.9-7c3.5-0.1,6.4-2.9,6.4-6.5c0-3.6-2.9-6.5-6.5-6.5c-3.6,0-6.5,2.9-6.5,6.5  c0,0.7,0.1,1.3,0.3,1.9l-11,7.8l0.9-6.1l0.6-0.1c3-0.6,5.3-3,5.7-6c0.3-1.9-0.2-3.8-1.3-5.3c-1.1-1.5-2.8-2.5-4.7-2.8h0  c-1.9-0.3-3.8,0.2-5.3,1.3c-1.5,1.1-2.5,2.8-2.8,4.7c-0.2,1.3,0,2.5,0.5,3.7l0.2,0.6l-11.7,10.7v-9.2c2.7-0.8,4.6-3.3,4.6-6.2  c0-3.6-2.9-6.5-6.5-6.5c-3.6,0-6.5,2.9-6.5,6.5c0,1.3,0.4,2.5,1,3.5l-36.8,45L160.3,13.8l0.1-0.1c1.7-0.7,3.1-2.1,3.8-3.8  c0.7-1.8,0.7-3.7,0-5.5c-0.7-1.8-2.1-3.1-3.8-3.9c-1.8-0.7-3.7-0.7-5.5,0c-1.8,0.7-3.1,2.1-3.9,3.9c-0.7,1.8-0.7,3.7,0,5.5l0.1,0.1  l-17.3,13.1l0-0.1c1.6-1,2.8-2.5,3.3-4.4c1.1-3.9-1.2-7.9-5.1-9c-1.9-0.5-3.9-0.3-5.6,0.7c-1.7,1-2.9,2.5-3.4,4.4  c-0.5,1.9-0.3,3.9,0.7,5.6l-13.5,13.3c0.8-1,1.3-2.1,1.5-3.4c0.3-1.9-0.2-3.8-1.3-5.3c-1.1-1.5-2.8-2.5-4.7-2.8  c-1.9-0.3-3.8,0.2-5.3,1.3c-1.5,1.1-2.5,2.8-2.8,4.7c-0.3,1.7,0.1,3.5,1.1,4.9l0.4,0.5L83,54l-0.8-1.3c1.3-1.2,2-2.9,2-4.7  c0-3.6-2.9-6.5-6.5-6.5c-3.6,0-6.5,2.9-6.5,6.5c0,1.6,0.6,3,1.5,4.1L54.6,83.4l-5.9,4.5l-0.1-0.1c-0.4-0.2-0.7-0.4-1.1-0.6  c-3.6-1.5-7.8,0.2-9.3,3.8c-0.7,1.8-0.7,3.7,0,5.5c0.7,1.8,2.1,3.1,3.8,3.9c0.1,0.1,0.3,0.1,0.4,0.1l-10.5,10.3  c-0.8-0.4-1.7-0.6-2.6-0.6c-3.6,0-6.5,2.9-6.5,6.5c0,3.2,2.4,5.9,5.5,6.4l-9,11.4l-0.6-0.2c-0.3-0.1-0.5-0.1-0.8-0.2  c-1.9-0.3-3.8,0.2-5.3,1.3c-1.5,1.1-2.5,2.8-2.8,4.7c-0.3,1.9,0.2,3.8,1.3,5.3c1.1,1.5,2.8,2.5,4.7,2.8c0.4,0.1,0.7,0.1,1.1,0.1  L7.3,165c-0.3,0-0.5-0.1-0.8-0.1c-3.6,0-6.5,2.9-6.5,6.5c0,3.6,2.9,6.5,6.5,6.5c2.5,0,4.6-1.4,5.7-3.4l133.4,0.2  c1.1,1.9,3.2,3.2,5.6,3.2c2.4,0,4.4-1.3,5.6-3.2l56.9,0.1c0.8,1.4,2.1,2.4,3.7,2.9v43.8c-2.8,0.7-4.9,3-5.3,5.9  c-0.3,1.9,0.2,3.8,1.3,5.3c1.1,1.4,2.6,2.3,4.3,2.7c0,0,0.1,0,0.1,0c0.1,0,0.2,0.1,0.3,0.1c0.3,0.1,0.7,0.1,1,0.1c0,0,0,0,0,0  c0,0,0,0,0,0c0.1,0,0.3,0,0.4,0c0.3,0,0.5,0,0.7-0.1c0.3-0.1,0.6-0.1,0.9-0.2c0,0,0.1,0,0.1,0c2.9-0.9,4.9-3.6,4.9-6.8  c0-2.3-1.1-4.4-2.9-5.7l-0.1-0.1l16.6-39.7l0.1,0c3.2,0.5,6.3-1.3,7.5-4.3c1.2-3,0.3-6.4-2.2-8.4l-0.1-0.1l26.5-63.5l0.1,0  c3.2,0.5,6.3-1.3,7.5-4.3C280.4,100.5,280.4,98.5,279.6,96.8z M253,92.8c0.5-1.8,2.4-2.9,4.2-2.4c1.8,0.5,2.9,2.4,2.4,4.2  c-0.5,1.8-2.4,2.9-4.2,2.4C253.6,96.5,252.5,94.6,253,92.8z M251.5,99.2c0,0,0.4-0.3,0.6-0.5c0.2,0.2,0.5,0.4,0.7,0.5  c-0.1,0.3-0.2,0.8-0.2,0.8l-2.6,9.6l-12.7,6.8l1.2-7.9L251.5,99.2z M234.3,170c0.3,0,0.7,0,1.1,0.1c0.4,0.1,0.7,0.3,1,0.5  c1.2,0.8,1.8,2.3,1.4,3.8c-0.4,1.6-2,2.7-3.6,2.5c-0.2,0-0.4,0-0.6-0.1c-0.2-0.1-0.4-0.1-0.6-0.2c0.1-0.2,0.3-0.3,0.4-0.5  c0.6-0.9,1-1.9,1.2-3c0-0.1,0-0.1,0-0.2C234.6,171.9,234.5,170.9,234.3,170z M234.5,166.1C234.5,166.1,234.4,166.1,234.5,166.1  c-0.9,0-1.7,0.2-2.5,0.4c-0.4-0.3-0.8-0.6-1.3-0.9l-0.6-0.3l6.5-44.8l12.1-6.4L234.5,166.1z M232.9,122.6l-6.1,42.3l-0.6,0.1  c-1.1,0.2-2,0.6-2.8,1.2c-0.6-0.5-1.3-0.8-2-1.1v-36.3L232.9,122.6z M221.2,124.9v-4.3l13.3-9.4l-1,7.2L221.2,124.9z M235.9,89.7  c0.3-1.9,2-3.2,3.9-2.9c1.9,0.3,3.2,2,2.9,3.9c-0.3,1.9-2,3.2-3.9,2.9C237,93.3,235.7,91.6,235.9,89.7z M235.2,96l0.6,0.3  c0.1,0.1,0.2,0.1,0.3,0.2l0.6,0.3l-1.3,9.3l-14.1,10v-7.3L235.2,96z M219.4,85.3c1.9,0,3.5,1.5,3.5,3.5c0,1.2-0.6,2.3-1.6,2.9  c-0.5,0.4-1.2,0.6-1.9,0.6c-1.6,0-3-1.1-3.3-2.6c-0.1-0.3-0.1-0.5-0.1-0.8C215.9,86.8,217.4,85.3,219.4,85.3z M216.7,94.6  c0.2,0.1,0.5,0.2,0.8,0.3v12.7l-38.2,34.9c-0.5-0.1-0.9-0.1-1.4-0.1l-0.2,0l0-0.2L216.7,94.6z M185.7,141.2l31.7-29v6.5L185.7,141.2  z M217.5,123.3v3.6l-20.4,10.9L217.5,123.3z M181.7,148.7c0.2,0.7,0.1,1.5-0.2,2.2c-0.7,1.8-2.8,2.6-4.5,1.9  c-0.2-0.1-0.4-0.2-0.6-0.3L181.7,148.7z M154.4,5.8c0.7-1.8,2.8-2.6,4.5-1.9c1.8,0.7,2.6,2.8,1.9,4.5c-0.7,1.8-2.8,2.6-4.5,1.9  C154.5,9.6,153.7,7.6,154.4,5.8z M168.3,145.1l-2-0.8L134.7,26.8l8.3-6.3l3-2.3l7.1-5.4l0.1,0.1c0.5,0.4,1,0.7,1.6,0.9  c0.6,0.3,1.3,0.4,1.9,0.5l0.1,0l17.2,126.5l-2.5,3.1L168.3,145.1z M172.3,148.9l-0.1,0.1c0,0,0,0,0,0L172.3,148.9z M172.1,156.3  c-0.5,1.8-2.4,2.9-4.2,2.4c-0.3-0.1-0.6-0.2-0.9-0.4l4.9-4.4C172.2,154.7,172.3,155.5,172.1,156.3z M154.3,139.2l-3.8-1.6  l-38.1-93.8l7.8-5.9l2.9-2.2l8.5-6.5l30.4,113.2l-3.4-1.4L154.3,139.2z M138.6,156.1l1.7,2.9L25,142.1l5.3-9.2l1.8-3.1l4.3-7.4  l98.2,27.1l1.6,2.7L138.6,156.1z M137.1,146.2l-8.2-13.9l18.9,7.9l4.1,10.1L137.1,146.2z M132.7,130.1l-6.6-2.8l-38.1-65l8.2-6.2  l2.8-2.1l10.6-8.1l36.5,89.8l-8.5-3.6L132.7,130.1z M126.7,15.9c0.5-1.8,2.4-2.9,4.2-2.4c1.8,0.5,2.9,2.4,2.4,4.2  c-0.5,1.8-2.4,2.9-4.2,2.4C127.3,19.6,126.2,17.7,126.7,15.9z M126.4,23.1c0.5,0.3,1.1,0.6,1.7,0.7c0.7,0.2,1.3,0.3,2,0.3l0.4,1.5  L111,40.5l-0.7-1.6L126.4,23.1z M100.9,48.2l6.8-6.7l0.5,1.2L100.9,48.2z M101.1,28.9c0.3-1.9,2-3.2,3.9-2.9c1.9,0.3,3.2,2,2.9,3.9  c-0.3,1.9-2,3.2-3.9,2.9C102.2,32.5,100.9,30.8,101.1,28.9z M101.7,35.9l0.6,0.2c0.4,0.1,0.9,0.3,1.3,0.3c0.5,0.1,1,0.1,1.5,0.1  l0.6,0l0.5,1.3L85.5,58.1l-0.6-1L101.7,35.9z M82.4,60.3l0.3,0.6l-3.5,3.4L82.4,60.3z M77.8,44.5c1.9,0,3.5,1.5,3.5,3.5  c0,1.9-1.5,3.5-3.5,3.5c-1.9,0-3.5-1.5-3.5-3.5C74.4,46.1,75.9,44.5,77.8,44.5z M75.9,54.2c0.6,0.2,1.2,0.3,1.9,0.3  c0.4,0,0.7,0,1.1-0.1l1.6,2.8l-13,16.4l-5.1,3.9L75.9,54.2z M60.6,87.8l21-20.7l3.3-2.5l35.4,60.3l-66.9-28L60.6,87.8z M41.6,92.5  c0.7-1.8,2.8-2.6,4.5-1.9c1.6,0.7,2.4,2.4,2,4c0,0.1-0.1,0.3-0.1,0.4c0,0,0,0.1,0,0.1c-0.2,0.5-0.5,0.9-0.8,1.2  c-0.3,0.3-0.7,0.6-1.2,0.7c-0.8,0.3-1.7,0.3-2.5,0C41.7,96.3,40.8,94.2,41.6,92.5z M129.3,140.4l2.6,4.4L38.4,119l4.8-8.2l2-3.3  l6.1-7.7l71.9,30.1l3.4,5.8L129.3,140.4z M40.7,107.4l0.3-0.2l-0.4,0.5l-5.3,6.7c-0.2-0.4-0.3-0.7-0.5-1.1L40.7,107.4z M28,120  c-1.8-0.7-2.6-2.8-1.9-4.5c0.7-1.8,2.8-2.6,4.5-1.9c1.6,0.7,2.4,2.4,2,4.1l-1.7,2.1C30,120.3,29,120.4,28,120z M28.7,128.2l-5.6,9.7  c-0.2-0.3-0.3-0.6-0.5-0.8l-0.4-0.6L28.7,128.2z M16.3,144.8c-1.9-0.3-3.2-2-2.9-3.9c0.3-1.9,2-3.2,3.9-2.9c1.9,0.3,3.2,2,2.9,3.9  C20,143.8,18.2,145.1,16.3,144.8z M6.5,174.9c-1.9,0-3.5-1.5-3.5-3.5c0-0.1,0-0.1,0-0.2c0.1-1.8,1.6-3.3,3.4-3.3  c1.8,0,3.3,1.4,3.4,3.2c0,0.1,0,0.2,0,0.2C10,173.3,8.4,174.9,6.5,174.9z M145.2,169c-0.2,0.6-0.4,1.3-0.5,1.9L13,170.8  c-0.2-1.7-1-3.2-2.2-4.2l3.9-6.8l1.9-3.3l6.5-11.2l119.4,17.5l1.6,2.7L145.2,169z M151.3,174.9c-1.9,0-3.5-1.5-3.5-3.5  c0-1.9,1.5-3.5,3.5-3.5c1.9,0,3.5,1.5,3.5,3.5C154.7,173.3,153.2,174.9,151.3,174.9z M147.3,163.5l6,0.9l0.2,0.5  c0.1,0.2,0.2,0.4,0.3,0.5c-0.8-0.3-1.6-0.5-2.4-0.5c-1,0-1.9,0.2-2.8,0.6L147.3,163.5z M154.5,157.8c-0.6,0.7-1,1.5-1.3,2.4  l-0.2,0.7l-8-1.2l-5.2-8.8l13.9,3.8l1.1,2.6L154.5,157.8z M152.3,142l10.8,4.5l0.9,3.4c-1,0.8-1.7,1.9-2.1,3.1l-5.7-1.6L152.3,142z   M163.5,162.7c-0.3,1.9-2,3.2-3.9,2.9c-0.3,0-0.5-0.1-0.8-0.2l4.2-5.1C163.4,161,163.6,161.8,163.5,162.7z M156.6,162.1  c0-0.1,0-0.2,0-0.4c0.2-1.4,1.3-2.5,2.6-2.9L156.6,162.1z M157.7,171c-0.1-0.8-0.2-1.5-0.6-2.2c0.6,0.3,1.2,0.4,1.9,0.5  c2.5,0.4,5.1-0.6,6.6-2.6l0.3-0.4l32.5,4.8L157.7,171z M167.2,163l0-0.4c2.6,0.6,5.2-0.3,7-2.2l28.2,7.8L167.2,163z M175.9,156.9  c0-0.2,0.1-0.4,0.1-0.6c2.4,0.8,5,0.4,7-1.3l0.1-0.1l27.5,11.5L175.9,156.9z M185,152.1l0.1-0.2c0.4-1.2,0.5-2.5,0.2-3.8l0-0.1  l32.2-17.1v34.3c-0.2,0.1-0.4,0.2-0.6,0.2L185,152.1z M216.8,173.7c-0.4-0.5-0.7-1.1-0.8-1.8c0-0.1,0-0.3,0-0.5  c0-0.4,0.1-0.9,0.2-1.3c0.2-0.4,0.4-0.7,0.7-1.1c0.2-0.3,0.5-0.5,0.8-0.7c0.5-0.3,1.1-0.5,1.7-0.5c0.7,0,1.3,0.2,1.9,0.6  c0.5,0.3,0.8,0.7,1.1,1.2c0.3,0.5,0.5,1.1,0.5,1.7c0,0.1,0,0.1,0,0.2c0,0.7-0.3,1.4-0.7,2c-0.3,0.4-0.8,0.8-1.3,1  c-0.4,0.2-0.9,0.3-1.4,0.3C218.3,174.9,217.4,174.4,216.8,173.7z M222.8,228.5c0,0.1,0,0.2,0,0.3c0,0.1,0,0.3-0.1,0.4  c0,0,0,0.1,0,0.1c0,0.1,0,0.1-0.1,0.2c0,0.1-0.1,0.3-0.2,0.4c0,0.1-0.1,0.2-0.1,0.2c-0.1,0.1-0.1,0.2-0.2,0.3  c-0.1,0.1-0.1,0.2-0.2,0.2c-0.1,0.1-0.2,0.2-0.3,0.3c-0.1,0.1-0.1,0.1-0.2,0.2c-0.1,0.1-0.2,0.2-0.3,0.2c-0.1,0-0.2,0.1-0.2,0.1  c-0.1,0.1-0.2,0.1-0.4,0.2c-0.1,0-0.2,0.1-0.3,0.1c-0.1,0-0.2,0.1-0.4,0.1c-0.1,0-0.2,0-0.3,0c0,0,0,0-0.1,0c0,0-0.1,0-0.1,0  c0,0,0,0-0.1,0c0,0,0,0-0.1,0c0,0-0.1,0-0.1,0c0,0,0,0-0.1,0c-0.1,0-0.1,0-0.2,0c-0.1,0-0.1,0-0.2,0c0,0,0,0-0.1,0  c-0.2,0-0.4-0.1-0.5-0.1c0,0-0.1,0-0.1,0c-0.1,0-0.1,0-0.2-0.1c-1.8-0.7-2.6-2.8-1.9-4.5c0.3-0.7,0.8-1.3,1.4-1.6  c0.3-0.2,0.6-0.3,0.9-0.4c0,0,0,0,0.1,0c0.2,0,0.3-0.1,0.5-0.1c0,0,0,0,0,0c0.1,0,0.1,0,0.2,0c0.1,0,0.1,0,0.2,0c0,0,0,0,0.1,0  c0,0,0.1,0,0.1,0c0.1,0,0.3,0,0.4,0c0.1,0,0.2,0,0.3,0.1c0,0,0.1,0,0.1,0c0.1,0,0.1,0.1,0.2,0.1c0.1,0,0.2,0.1,0.3,0.1  c0.1,0,0.2,0.1,0.3,0.2c0,0,0.1,0,0.1,0.1c0,0,0.1,0.1,0.1,0.1c0.1,0.1,0.2,0.1,0.3,0.2c0.1,0.1,0.2,0.1,0.2,0.2  c0.1,0.1,0.1,0.2,0.2,0.3c0.1,0.1,0.1,0.2,0.2,0.3c0.1,0.1,0.1,0.2,0.1,0.3c0.1,0.1,0.1,0.2,0.1,0.3c0,0.1,0.1,0.2,0.1,0.3  c0,0.1,0.1,0.2,0.1,0.3c0,0.1,0,0.2,0,0.3c0,0.1,0,0.2,0,0.2C222.8,228.4,222.8,228.5,222.8,228.5z M221.2,202.9v-25.2  c0.4-0.1,0.9-0.3,1.3-0.6c0.5,0.5,1.1,0.9,1.7,1.2l0.6,0.3L221.2,202.9z M225.2,174.4c0.3-0.5,0.4-1,0.6-1.6  c0.1-0.5,0.2-0.9,0.2-1.4c0-0.2,0-0.5-0.1-0.7c-0.1-0.5-0.2-1-0.4-1.5c0-0.1,0-0.1-0.1-0.2l0.2,0.1c0.7-0.4,1.5-0.6,2.3-0.5  c0.3,0,0.6,0.1,0.8,0.2c1,0.4,1.8,1.3,2,2.4c0.1,0.4,0.1,0.8,0.1,1.3c-0.1,0.8-0.5,1.5-1.1,2c-0.6,0.6-1.5,0.9-2.4,0.9  c-0.2,0-0.3,0-0.5,0c-0.7-0.1-1.3-0.4-1.8-0.9c-0.1-0.1-0.1-0.1-0.2-0.2L225.2,174.4z M228.1,179.1l0.6-0.1c0.2,0,0.5-0.1,0.7-0.2  c0.4,0.4,0.8,0.7,1.3,0.9l-5.7,20.9L228.1,179.1z M228.9,200.9l5.5-20.1c0,0,0,0,0.1,0c0.5,0,1-0.1,1.5-0.2c0.3,0.3,0.6,0.6,0.9,0.9  l0.1,0.1L228.9,200.9z M244.4,177.1c-0.7,1.8-2.8,2.6-4.5,1.9c-0.2-0.1-0.3-0.1-0.4-0.2c-1.5-0.9-2.1-2.7-1.4-4.3  c0.6-1.5,2.1-2.3,3.7-2.1c0.3,0,0.6,0.1,0.9,0.2C244.3,173.4,245.1,175.4,244.4,177.1z M242.3,168.8l-0.1,0c-0.7-0.1-1.4-0.1-2.1,0  c-0.5-0.6-1.2-1.2-1.9-1.6l15.1-55.4l14.3-7.6l0.1,0.1c0.3,0.3,0.6,0.6,1,0.9l0.1,0.1L242.3,168.8z M276.2,100.8  c-0.7,1.8-2.8,2.6-4.5,1.9c-1.8-0.7-2.6-2.8-1.9-4.5c0.7-1.8,2.8-2.6,4.5-1.9C276.1,97,277,99.1,276.2,100.8z"></path></svg>